<?xml version="1.0" encoding="UTF-8"?><svg id="uuid-997a1627-d967-4c01-9fd2-632193ebd964" xmlns="http://www.w3.org/2000/svg" viewBox="0 0 84 84"><path d="M36,0c-8.824,0-16,7.176-16,16s7.176,16,16,16,16-7.176,16-16S44.824,0,36,0ZM36,8c4.412,0,8,3.588,8,8s-3.588,8-8,8-8-3.588-8-8,3.588-8,8-8ZM60,36c-7.249,0-13.762,3.268-18.172,8.391-2.082-.24-4.075-.391-5.828-.391C23.436,44,0,50.18,0,62v10h39.266c4.168,7.151,11.904,12,20.734,12,13.2,0,24-10.8,24-24s-10.8-24-24-24ZM56,48h8v8h8v8h-8v8h-8v-8h-8v-8h8v-8ZM36,52c.453,0,.918.07,1.375.086-.875,2.483-1.375,5.141-1.375,7.914,0,1.365.145,2.695.367,4H8v-2c0-3.476,14.832-10,28-10Z"/></svg>