<?xml version="1.0" encoding="UTF-8"?><svg id="uuid-8aaa82f0-604e-4ee5-8fe1-19023be1110a" xmlns="http://www.w3.org/2000/svg" viewBox="0 0 30 30"><g id="uuid-a23c50f9-2bd0-4394-a691-378a09a0f519"><g id="uuid-08fb48f3-e2ab-445f-b066-e23b1209011e"><path id="uuid-7be8e490-8dbd-48b2-89e1-e75bbf4ad8b9" d="M12.96,0c-3.164,0-5.76,2.575-5.76,5.714s2.596,5.714,5.76,5.714,5.76-2.575,5.76-5.714S16.125,0,12.96,0ZM12.96,2.857c1.608,0,2.88,1.262,2.88,2.857s-1.272,2.857-2.88,2.857-2.88-1.262-2.88-2.857,1.272-2.857,2.88-2.857ZM12.96,15.714c-4.523,0-12.96,2.207-12.96,6.429v3.571h13.385c-.272-.906-.425-1.864-.425-2.857H2.88v-.714c0-1.241,5.34-3.571,10.08-3.571.32,0,.644.013.968.033.469-.987,1.092-1.889,1.845-2.667-1.02-.149-1.982-.223-2.813-.223ZM21.694,15.714c-.186,0-.341.138-.363.321l-.169,1.445c-.697.24-1.326.604-1.873,1.074l-1.35-.58c-.17-.073-.366-.007-.458.153l-1.35,2.316c-.092.16-.05.363.098.472l1.162.854c-.068.354-.11.717-.11,1.088s.041.733.11,1.085l-1.159.857c-.148.11-.192.313-.098.472l1.347,2.316c.092.16.291.224.461.151l1.347-.578c.546.469,1.176.834,1.873,1.074l.169,1.445c.02.184.177.321.363.321h2.694c.186,0,.341-.138.363-.321l.169-1.445c.697-.24,1.326-.604,1.873-1.074l1.35.58c.17.073.366.005.458-.153l1.35-2.316c.092-.16.05-.363-.098-.472l-1.162-.857c.069-.353.11-.714.11-1.085s-.041-.733-.11-1.085l1.159-.857c.148-.11.192-.313.098-.472l-1.347-2.316c-.092-.16-.291-.224-.461-.151l-1.347.578c-.546-.469-1.176-.834-1.873-1.074l-.169-1.445c-.02-.184-.177-.321-.363-.321h-2.694ZM23.041,20.357c1.391,0,2.52,1.119,2.52,2.5s-1.129,2.5-2.52,2.5-2.52-1.12-2.52-2.5,1.129-2.5,2.52-2.5Z"/></g></g></svg>