<?xml version="1.0" encoding="UTF-8"?><svg id="uuid-da8606b3-fb3c-4ce7-a57f-be9b5a7dc063" xmlns="http://www.w3.org/2000/svg" viewBox="0 0 26 25"><g id="uuid-e3f5bdfd-d134-43b0-82c0-754e8b541dd4"><g id="uuid-c81bdbe8-01f5-4f92-91ef-ca96bf38f204"><path id="uuid-c0f0ad81-fa7d-4f8d-9e8e-4c04fa999383" d="M2.737,0C1.227,0,0,1.246,0,2.778v22.222h5.474v-2.778h-2.737V2.778h13.684v7.72c.238.143.469.298.684.475.595-.487,1.295-.84,2.053-1.047V2.778c0-1.532-1.227-2.778-2.737-2.778H2.737ZM5.474,5.556v2.778h2.737v-2.778h-2.737ZM10.947,5.556v2.778h2.737v-2.778h-2.737ZM5.474,11.111v2.778h2.737v-2.778h-2.737ZM13.684,12.5c-1.512,0-2.737,1.244-2.737,2.778s1.225,2.778,2.737,2.778,2.737-1.244,2.737-2.778-1.225-2.778-2.737-2.778ZM20.526,12.5c-1.512,0-2.737,1.244-2.737,2.778s1.225,2.778,2.737,2.778,2.737-1.244,2.737-2.778-1.225-2.778-2.737-2.778ZM5.474,16.667v2.778h2.737v-2.778h-2.737ZM13.684,20.833c-2.99,0-5.474,1.262-5.474,3.079v1.088h17.789v-1.088c0-1.817-2.484-3.079-5.474-3.079-1.293,0-2.477.247-3.421.662-.944-.415-2.128-.662-3.421-.662Z"/></g></g></svg>