<?xml version="1.0" encoding="UTF-8"?><svg id="uuid-13b03ce6-15ca-483d-8994-a811e7b80a8b" xmlns="http://www.w3.org/2000/svg" viewBox="0 0 32 21"><g id="uuid-ed07eda4-cfad-47b0-8c3e-4f9da027f705"><g id="uuid-c2bbb3bd-8c47-4bd8-aa9a-6d5518795760"><path id="uuid-eba32132-a00f-4255-afd1-380953113795" d="M9.6,0c-2.632,0-4.8,2.189-4.8,4.846s2.168,4.846,4.8,4.846,4.8-2.189,4.8-4.846S12.232,0,9.6,0ZM16.95,1.615c.416.985.65,2.074.65,3.231h14.4V1.615h-15.05ZM9.6,3.231c.903,0,1.6.704,1.6,1.615s-.697,1.615-1.6,1.615-1.6-.704-1.6-1.615.697-1.615,1.6-1.615ZM16.944,8.077c-.39.919-.936,1.752-1.616,2.451.706.218,1.353.487,1.975.779h14.697v-3.231h-15.056ZM9.6,12.923c-2.362,0-4.536.376-6.272,1.13-.868.377-1.637.849-2.253,1.505-.616.656-1.075,1.567-1.075,2.562v2.881h19.2v-2.881c0-.995-.459-1.906-1.075-2.562-.616-.656-1.385-1.128-2.253-1.505-1.736-.754-3.91-1.13-6.272-1.13ZM21.353,14.538c.667.985,1.047,2.074,1.047,3.231h9.6v-3.231h-10.647ZM9.6,16.154c2.007,0,3.835.359,5.006.868.576.25.974.535,1.178.748H3.416c.204-.213.602-.497,1.178-.748,1.171-.509,2.999-.868,5.006-.868Z"/></g></g></svg>