<?xml version="1.0" encoding="UTF-8"?><svg id="uuid-2fa0c91d-df8f-4c44-86b5-f793d7040146" xmlns="http://www.w3.org/2000/svg" viewBox="0 0 88 84"><path d="M44,0c-.792,0-1.583.299-2.195.891l-6.023,5.82-8.289-1.172c-.152-.024-.297-.031-.445-.031-1.512,0-2.841,1.085-3.109,2.617l-1.453,8.25-7.391,3.922c-1.508.8-2.107,2.648-1.359,4.18l3.68,7.523-3.68,7.523c-.748,1.532-.149,3.38,1.359,4.18l6.016,3.188L0,68l12,4,4,12,23.305-23.305,2.5,2.414c.608.592,1.403.891,2.195.891s1.583-.299,2.195-.891l2.5-2.414,23.305,23.305,4-12,12-4-21.109-21.109,6.016-3.188c1.508-.8,2.107-2.648,1.359-4.18l-3.68-7.523,3.68-7.523c.748-1.532.149-3.38-1.359-4.18l-7.398-3.922-1.445-8.25c-.268-1.532-1.601-2.617-3.109-2.617-.148,0-.293.011-.445.031l-8.297,1.172-6.016-5.82c-.608-.592-1.403-.891-2.195-.891ZM44,9.891l2.656,2.57,2.813,2.719,3.875-.547,3.648-.516.641,3.633.68,3.852,3.453,1.836,3.266,1.734-1.625,3.312-1.719,3.516,1.719,3.516,1.617,3.312-3.266,1.734-3.453,1.828-.68,3.852-.641,3.641-3.656-.516-3.867-.555-2.812,2.727-2.648,2.57-2.656-2.57-2.813-2.719-3.875.547-3.648.516-.641-3.633-.68-3.852-3.445-1.836-3.266-1.734,1.617-3.312,1.719-3.516-1.719-3.516-1.617-3.312,3.266-1.734,3.453-1.836.68-3.852.641-3.633,3.656.516,3.867.547,2.812-2.719,2.648-2.57ZM23.859,55.453l.078.422c.268,1.532,1.601,2.617,3.109,2.617.148,0,.293-.011.445-.031l3.188-.453-11.188,11.188-1.172-3.516-3.516-1.172,9.055-9.055ZM64.141,55.453l9.055,9.055-3.516,1.172-1.172,3.516-11.188-11.188,3.188.453c.148.02.297.031.445.031,1.512,0,2.841-1.085,3.109-2.617l.078-.422Z"/></svg>