<?xml version="1.0" encoding="UTF-8"?><svg id="uuid-aa604af8-766d-4ef1-8217-44748606b12c" xmlns="http://www.w3.org/2000/svg" viewBox="0 0 41 30"><g id="uuid-d4ce9562-05b9-4545-bc17-6c00ad4c180e"><g id="uuid-7234474e-5e67-44e8-b0f8-c18ea5d67b4b"><path id="uuid-5da2230c-bd8d-4ecd-bf10-f38e9f30109f" d="M22.976,11.094h-2.147v13.692h8.613v-13.692h-6.466ZM27.293,13.272v2.312h-4.317v-2.312h4.317ZM22.976,22.608v-4.849h4.32v4.849h-4.32Z"/><path id="uuid-51b75751-46ed-4644-ae4a-eaa667cbcbc6" d="M41,16.101l-8.314-8.434V.724h-2.147v4.764l-3.894-3.95h0l-1.517-1.539-15.86,16.089,1.517,1.539,1.41-1.431v5.845h-2.147v-2.146h-2.147v2.146h-2.878v-2.146h-2.147v2.146H0v2.178h2.878v3.603H0v2.178h38.073v-13.788l1.41,1.431,1.517-1.541ZM5.025,27.822v-3.603h2.881v3.603h-2.881ZM10.049,27.822v-3.603h2.147v3.603h-2.147ZM35.926,27.822H14.343v-13.8L25.129,3.08l10.798,10.954v13.788Z"/></g></g></svg>