<?xml version="1.0" encoding="UTF-8"?><svg id="uuid-c417493f-ec01-4b26-8081-acb06e29ed4f" xmlns="http://www.w3.org/2000/svg" viewBox="0 0 30 30"><g id="uuid-6dfbde14-55e6-407f-9d49-fbb07204d59d"><g id="uuid-c05c166c-0dd4-4428-98c0-1a2d09545510"><g id="uuid-a753b9a7-cd65-4622-ba23-01ecbe7f3303"><path id="uuid-8b27fcc4-db69-4f85-b4a7-c4739cf67d80" d="M30,15c0,8.283-6.717,15-15,15S0,23.283,0,15,6.717,0,15,0s15,6.717,15,15Z" fill="#00acc1"/><path id="uuid-55ed5f02-2f4b-4342-9603-fced3b9c056b" d="M27,15c0,6.628-5.372,12-12,12S3,21.628,3,15,8.372,3,15,3s12,5.372,12,12Z" fill="#eee"/><rect id="uuid-9027724d-97fd-42eb-9479-e8de117c2b92" x="14.25" y="5.25" width="1.5" height="9.75"/><polygon id="uuid-7faa5e09-2b0c-4d00-a366-09c17ba56afb" points="14.381 15.619 15.62 14.38 20.495 19.255 19.255 20.494 14.381 15.619"/><path id="uuid-7008297e-6664-457a-8a26-27fcc4cbbff7" d="M17.25,15c0,1.243-1.008,2.25-2.25,2.25s-2.25-1.007-2.25-2.25,1.007-2.25,2.25-2.25,2.25,1.007,2.25,2.25"/><path id="uuid-928e5d4c-0cff-4d3f-844b-6f03733c2209" d="M15.75,15c0,.413-.336.75-.75.75s-.75-.337-.75-.75.336-.75.75-.75.75.335.75.75" fill="#00acc1"/></g></g></g></svg>