<?xml version="1.0" encoding="UTF-8"?><svg id="uuid-49e45d68-3600-44c2-a581-4bcd9b6756cf" xmlns="http://www.w3.org/2000/svg" viewBox="0 0 33 28"><g id="uuid-1dc4f45e-4ce6-4d6c-9a2d-876827144bf7"><g id="uuid-440cf3f1-4121-4514-9188-406992395663"><g id="uuid-675cd7b3-a271-4af4-bb22-caf5765b0342"><path id="uuid-6482694b-6b81-4058-b38c-dba50198cc2c" d="M29.7,3.294h-14.85l-3.3-3.294H3.3C1.478,0,0,1.475,0,3.294v5.765h33v-2.471c0-1.819-1.478-3.294-3.3-3.294" fill="#673ab7"/><path id="uuid-6d1b9d4d-782d-497b-bf77-b250e8f57ea6" d="M29.7,3.294H3.3c-1.822,0-3.3,1.475-3.3,3.294v18.118c0,1.819,1.478,3.294,3.3,3.294h4.125v-1.052c-.491-.286-.825-.81-.825-1.419,0-.91.738-1.647,1.65-1.647s1.65.737,1.65,1.647c0,.608-.334,1.133-.825,1.419v1.052h14.85v-1.052c-.492-.286-.825-.81-.825-1.419,0-.91.738-1.647,1.65-1.647s1.65.737,1.65,1.647c0,.608-.334,1.133-.825,1.419v1.052h4.125c1.822,0,3.3-1.475,3.3-3.294V6.588c0-1.819-1.478-3.294-3.3-3.294" fill="#673ab7"/><path id="uuid-75345c13-0023-4ba7-b9bb-310ce8d02fc9" d="M12.375,11.529c0,1.819-1.478,3.294-3.3,3.294s-3.3-1.475-3.3-3.294,1.478-3.294,3.3-3.294,3.3,1.475,3.3,3.294M14.85,18.941s-1.598-2.471-5.775-2.471-5.775,2.471-5.775,2.471v1.647h11.55v-1.647ZM17.325,9.059h12.375v1.647h-12.375v-1.647ZM17.325,13.176h12.375v1.647h-12.375v-1.647ZM17.325,17.294h6.6v1.647h-6.6v-1.647Z" fill="#d1c4e9"/></g></g></g></svg>