<?xml version="1.0" encoding="UTF-8"?><svg id="uuid-b0559f9e-a9f0-4070-a5fa-9331f2274c28" xmlns="http://www.w3.org/2000/svg" viewBox="0 0 36 32"><g id="uuid-e466f4bd-a01f-47fe-bd85-3564a3ad66ba"><g id="uuid-c6806fcc-b001-4278-9ff7-9e185049be87"><g id="uuid-f6161874-c535-4e75-ab12-9435ca0f26f0"><path id="uuid-350b9bda-020d-47c7-9cc1-c90b24234131" d="M24.261,21.6s-1.733-3.2-6.261-3.2-6.261,3.2-6.261,3.2v1.6h12.522v-1.6Z" fill="#607d8b" fill-rule="evenodd"/><path id="uuid-c2389170-1cbf-4c18-be49-f44b15d26918" d="M19.565,16h-3.13v2.4s-.095,1.6,1.535,1.6,1.596-1.6,1.596-1.6v-2.4Z" fill="#ff9800" fill-rule="evenodd"/><path id="uuid-f6ed158b-4fba-49c5-b0f6-b62f51e9e6bf" d="M18,17.6c-2.158,0-3.913-1.794-3.913-4s1.755-4,3.913-4,3.913,1.794,3.913,4-1.755,4-3.913,4" fill="#ffb74d" fill-rule="evenodd"/><path id="uuid-a05d9e15-e164-42a6-8ac1-878ba1c74458" d="M17.829,8c-1.907.175-3.742,1.544-3.742,4.459v1.141l.783.8v-2.4l4.937-1.759,1.323,1.759v2.4l.783-.8v-.962c0-1.931-.107-3.362-2.348-3.838l-.379-.8h-1.358Z" fill="#424242" fill-rule="evenodd"/><path id="uuid-a987bccd-fd16-4cbc-8d78-ebb86c5549e6" d="M18,0C9.62,0,2.798,6.738,2.387,15.2h2.348c.408-7.137,6.182-12.8,13.265-12.8,5.462,0,10.15,3.367,12.199,8.179l2.157-.948C29.947,3.966,24.429,0,18,0Z" fill="#2196f3" fill-rule="evenodd"/><polygon id="uuid-3f58d35f-fe3e-4b48-9623-dc40d030108f" points="3.522 18.4 7.043 14.4 0 14.4 3.522 18.4" fill="#2196f3" fill-rule="evenodd"/><g id="uuid-1e217f3d-2ce0-4923-9d0f-147c62bf0fc8"><path id="uuid-2588c9ca-c716-48eb-b096-0fb06ff5c67e" d="M18,32c8.38,0,15.202-6.738,15.613-15.2h-2.348c-.407,7.137-6.181,12.8-13.265,12.8-5.462,0-10.15-3.367-12.199-8.179l-2.157.948c2.41,5.666,7.927,9.631,14.356,9.631Z" fill="#2196f3" fill-rule="evenodd"/><polygon id="uuid-8dea42b1-92c7-4b8e-a313-066b6e43f839" points="32.478 13.6 28.957 17.6 36 17.6 32.478 13.6" fill="#2196f3" fill-rule="evenodd"/></g></g></g></g></svg>