<?xml version="1.0" encoding="UTF-8"?><svg id="uuid-a9ebc6cc-e2d4-4b69-a40a-bdca40e6f444" xmlns="http://www.w3.org/2000/svg" viewBox="0 0 29 38"><g id="uuid-d3c6d9cf-3d08-4582-8507-c9a2f07e3edb"><g id="uuid-a25520a8-2a56-4a1a-be25-698d73863735"><g id="uuid-3ab8d2ef-5247-434b-a19c-6cfcdc697c17"><polygon id="uuid-f38c1273-1c7e-4590-809b-ed867968e252" points="27.294 33.797 21.503 33.797 18.185 38 12.726 25.131 23.362 25.131 27.294 33.797" fill="#dd2c00"/><polygon id="uuid-b428edba-be33-464c-8db3-067e634648bb" points="17.212 25.131 11.668 38 8.35 33.797 2.559 33.797 6.491 25.131 17.212 25.131" fill="#ff3d00"/><path id="uuid-e303f7f8-f806-451b-ab2c-3337b7e82bcd" d="M28.424,16.115c-.467-.861-.467-1.905,0-2.765l.223-.413c.729-1.348.284-3.041-1.012-3.837l-.397-.244c-.827-.51-1.341-1.413-1.361-2.394l-.01-.471c-.031-1.538-1.25-2.777-2.764-2.809l-.464-.01c-.967-.02-1.857-.542-2.357-1.383l-.241-.403c-.784-1.316-2.451-1.77-3.777-1.029l-.406.227c-.847.474-1.875.474-2.722,0l-.405-.226c-1.326-.741-2.992-.288-3.776,1.029l-.241.403c-.502.841-1.39,1.362-2.357,1.383l-.464.01c-1.514.031-2.734,1.27-2.764,2.809l-.01.471c-.02.983-.534,1.887-1.361,2.394l-.397.244c-1.295.796-1.742,2.49-1.012,3.837l.223.413c.467.861.467,1.905,0,2.765l-.223.412c-.729,1.348-.284,3.041,1.012,3.837l.397.244c.827.51,1.341,1.413,1.361,2.394l.01.471c.031,1.538,1.25,2.777,2.764,2.809l.464.01c.967.02,1.857.542,2.357,1.383l.241.403c.784,1.316,2.451,1.77,3.777,1.029l.406-.227c.847-.474,1.875-.474,2.722,0l.406.227c1.326.741,2.993.289,3.777-1.029l.241-.403c.502-.841,1.39-1.362,2.357-1.383l.464-.01c1.514-.031,2.734-1.27,2.764-2.809l.01-.471c.02-.983.534-1.887,1.361-2.394l.397-.244c1.295-.796,1.742-2.49,1.012-3.837l-.226-.413Z" fill="#ffa000"/><ellipse id="uuid-fd256c3c-440d-4bfd-bd20-784d35e9265b" cx="14.499" cy="14.732" rx="10.235" ry="10.399" fill="#ffb300"/><path id="uuid-4666d83e-1384-4817-995b-303b1d59da06" d="M14.5,25.998c-6.114,0-11.088-5.054-11.088-11.266S8.385,3.466,14.5,3.466s11.088,5.054,11.088,11.266-4.974,11.267-11.088,11.267ZM14.5,5.199c-5.174,0-9.382,4.277-9.382,9.533s4.209,9.533,9.382,9.533,9.382-4.277,9.382-9.533-4.209-9.533-9.382-9.533Z" fill="#ffca28"/><polygon id="uuid-4172fd66-497d-4116-990b-88c32b29f920" points="13.449 19.936 9.431 16.005 10.613 14.758 13.371 17.454 19.645 10.481 20.904 11.651 13.449 19.936" fill="#ffecb3"/></g></g></g></svg>