<?xml version="1.0" encoding="UTF-8"?><svg id="uuid-41192beb-66e4-4bdf-ab2a-6c8d04a889a1" xmlns="http://www.w3.org/2000/svg" viewBox="0 0 26 36"><g id="uuid-33acb73f-9614-4456-b74e-e9bccc6e59f0"><g id="uuid-99bc5a1b-8107-47b8-b048-17066340fc5d"><g id="uuid-1c376259-80ff-4dff-9d58-2cc2ed6053a8"><path id="uuid-d55a8ac1-d0dc-4455-b103-b620ccd5f3a3" d="M22.75,3.273h-8.125c0,.904-.727,1.636-1.625,1.636s-1.625-.732-1.625-1.636H3.25c-1.796,0-3.25,1.464-3.25,3.273v26.182c0,1.809,1.454,3.273,3.25,3.273h19.5c1.796,0,3.25-1.464,3.25-3.273V6.545c0-1.809-1.454-3.273-3.25-3.273" fill="#455a64"/><path id="uuid-2583e459-f585-4ab5-9562-0df7ce09e3b6" d="M22.75,33.545H3.25c-.448,0-.812-.367-.812-.818V6.545c0-.451.365-.818.812-.818h19.5c.448,0,.812.367.812.818v26.182c0,.451-.365.818-.812.818" fill="#fff"/><g id="uuid-b796c6e6-d24c-40d8-a68c-54dfcaa25358"><path id="uuid-52e4df77-dfa1-41b3-a0f1-fda1473f836f" d="M14.625,3.273c0,.904-.727,1.636-1.625,1.636s-1.625-.732-1.625-1.636h-5.688v3.273c0,.904.727,1.636,1.625,1.636h11.375c.898,0,1.625-.732,1.625-1.636v-3.273h-5.688Z" fill="#90a4ae"/><path id="uuid-79f0983e-bf5b-44a0-86d7-bc9d3ecacfd0" d="M13,0c-1.793,0-3.25,1.467-3.25,3.273s1.457,3.273,3.25,3.273,3.25-1.467,3.25-3.273-1.457-3.273-3.25-3.273M13,4.909c-.898,0-1.625-.732-1.625-1.636s.727-1.636,1.625-1.636,1.625.732,1.625,1.636-.727,1.636-1.625,1.636" fill="#90a4ae"/></g><g id="uuid-065b9810-dae2-4a21-869b-d887502e71ad"><polygon id="uuid-aaf06952-7e98-4539-b9b8-465827c1a458" points="4.875 14.727 12.188 14.727 12.188 16.364 4.875 16.364 4.875 14.727" fill="#03a9f4"/><polygon id="uuid-29dc7a3d-84ba-48bb-90b7-20bb4f72241c" points="4.875 24.545 12.188 24.545 12.188 26.182 4.875 26.182 4.875 24.545" fill="#03a9f4"/></g><g id="uuid-b852c7b9-9c3a-4beb-ac09-92f811505ab6"><polygon id="uuid-23f7245a-656f-4ef4-997e-eaeeeeec4f7f" points="14.625 24.059 15.767 22.909 20.312 27.486 19.17 28.636 14.625 24.059" fill="#f50057"/><polygon id="uuid-ece2e21c-f906-44eb-89cf-11264a005ca6" points="14.625 27.486 19.17 22.909 20.312 24.059 15.767 28.636 14.625 27.486" fill="#f50057"/></g><g id="uuid-c6ce6ce4-3aa3-4e95-9c3e-0c9538ac69ac"><polygon id="uuid-d83d392d-b11a-4296-9f44-946b10dac405" points="18.614 16.846 17.469 18 14.625 15.136 15.771 13.983 17.469 15.693 18.614 16.846" fill="#43a047"/><polygon id="uuid-01bedb37-30fb-4296-adcf-6a11ffcd3d76" points="21.102 14.341 17.469 18 16.323 16.846 17.469 15.693 19.957 13.188 21.102 14.341" fill="#43a047"/></g></g></g></g></svg>