<?xml version="1.0" encoding="UTF-8"?><svg id="uuid-3d2195a3-7875-4cbe-8a3e-efe58a05c684" xmlns="http://www.w3.org/2000/svg" viewBox="0 0 29 35"><g id="uuid-718b1cc7-0e10-4170-85a5-e5e9af797f7f"><g id="uuid-2c0a4207-0f57-418c-85cc-032f27ab8ae2"><path id="uuid-555db1c5-3f91-4748-8f29-f9b4a0fcad56" d="M12.741,26.25c-3.982,0-3.982-4.773-3.982-4.773v-4.773h7.963v4.773s0,4.773-3.982,4.773Z" fill="#ff9800"/><path id="uuid-1402f076-266d-4650-9bb1-dce4a0a3847e" d="M21.501,11.932c0,.88-.714,1.591-1.593,1.591s-1.593-.711-1.593-1.591.713-1.591,1.593-1.591,1.593.712,1.593,1.591M7.167,11.932c0-.879-.714-1.591-1.593-1.591s-1.593.712-1.593,1.591.712,1.591,1.593,1.591,1.593-.711,1.593-1.591" fill="#ffa726"/><path id="uuid-8132e859-1c40-4b1e-a042-47654cccda53" d="M19.908,7.159c0-6.073-14.334-3.954-14.334,0v5.568c0,3.954,3.208,7.159,7.167,7.159s7.167-3.205,7.167-7.159v-5.568Z" fill="#ffb74d"/><path id="uuid-a7c0e97b-d697-48a0-8fcd-e7598eadf1ec" d="M12.741,0c-4.838,0-7.963,3.918-7.963,8.75v1.818l1.593,1.364v-3.977l9.556-3.182,3.185,3.182v3.977l1.593-1.386v-1.796c0-3.202-.827-6.376-4.778-7.159l-.796-1.591h-2.389Z" fill="#424242"/><path id="uuid-21d3c985-a0f9-4090-87af-e7d9c478476e" d="M15.13,11.932c0-.438.357-.795.796-.795s.796.357.796.795-.357.795-.796.795-.796-.357-.796-.795M8.76,11.932c0,.438.357.795.796.795s.796-.357.796-.795-.357-.795-.796-.795-.796.357-.796.795" fill="#784719"/><path id="uuid-4f93610b-ba91-4892-b653-382461559cbb" d="M16.723,21.477h0s-.796,3.182-3.982,3.182-3.982-3.182-3.982-3.182c0,0-8.76,1.58-8.76,10.341h25.483c0-8.73-8.76-10.341-8.76-10.341" fill="#4fc3f7"/><path id="uuid-8cbd199f-ae54-4e77-a3bd-1a341997628d" d="M12.741,26.25c3.982,0,5.371-3.126,5.535-4.318-.921-.337-1.553-.455-1.553-.455,0,0-.796,3.182-3.982,3.182s-3.982-3.182-3.982-3.182c0,0-.633.115-1.554.45.162,1.189,1.554,4.323,5.536,4.323Z" fill="#01579b"/><g id="uuid-7a7c2cd8-f79e-43dd-b7d8-989684d24ec6"><path id="uuid-8592068f-3e5d-4445-9d7d-dd7c17fbce4d" d="M29,27.5c0,4.125-3.404,7.5-7.565,7.5s-7.565-3.375-7.565-7.5,3.404-7.5,7.565-7.5,7.565,3.375,7.565,7.5" fill="#ff3d00"/><polygon id="uuid-1943dcf6-f86d-4843-9d17-c80684ac1cc2" points="25.444 25.1 23.856 23.525 21.435 25.925 19.014 23.525 17.425 25.1 19.846 27.5 17.425 29.9 19.014 31.475 21.435 29.075 23.856 31.475 25.444 29.9 23.023 27.5 25.444 25.1" fill="#fff"/></g></g></g></svg>