<?xml version="1.0" encoding="UTF-8"?><svg id="uuid-a803681b-2560-4048-bafe-6d29bb59d225" xmlns="http://www.w3.org/2000/svg" viewBox="0 0 27.945 32"><g id="uuid-722ee6ea-5ce7-45b1-88cf-8b01e86867d8"><g id="uuid-98f15d1f-7626-4921-aa17-f7079be895da"><g id="uuid-e7cca72b-9b5b-48dc-a81b-e3ab4aa7b748"><polygon id="uuid-fe83ae9a-abb0-4e85-ba65-b3bc64125100" points="22.673 29.63 0 29.63 0 0 15.588 0 22.673 7.055 22.673 29.63" fill="#90caf9" fill-rule="evenodd"/><polygon id="uuid-26b166f8-84ad-4621-aaa6-4b24cd7de95a" points="21.48 8.296 14.32 8.296 14.32 1.185 21.48 8.296" fill="#e1f5fe" fill-rule="evenodd"/><polygon id="uuid-172fe800-8a51-4e7b-8a1e-90888b096158" points="20.622 25.971 22.018 24.55 27.941 30.579 26.545 32 20.622 25.971" fill="#616161" fill-rule="evenodd"/><path id="uuid-9c2da2d9-1c7e-4b83-82fc-7f08d1acbf1f" d="M23.867,19.556c0,4.254-3.473,7.704-7.757,7.704s-7.757-3.45-7.757-7.704,3.473-7.704,7.757-7.704,7.757,3.45,7.757,7.704" fill="#616161" fill-rule="evenodd"/><path id="uuid-0d3588a9-14ba-48df-9ef6-17c44fa1a8b8" d="M22.673,19.556c0,3.6-2.938,6.519-6.563,6.519s-6.563-2.918-6.563-6.519,2.937-6.519,6.563-6.519,6.563,2.918,6.563,6.519" fill="#90caf9" fill-rule="evenodd"/><polygon id="uuid-592705e4-3f31-408f-86e9-e8170b5e10c1" points="22.257 27.635 23.653 26.212 27.945 30.578 26.549 32 22.257 27.635" fill="#37474f" fill-rule="evenodd"/></g></g></g></svg>