<?xml version="1.0" encoding="UTF-8"?><svg id="uuid-80f60006-e2ca-4924-808f-f3becf36878e" xmlns="http://www.w3.org/2000/svg" viewBox="0 0 39 39.881"><g id="uuid-080bda82-0cb3-467f-bd04-b3a1e46fb0b6"><g id="uuid-46b6d44b-e84d-4744-9260-fffe53e6c4e8"><g id="uuid-41506611-2764-45c1-bcba-1d74fde4af8c"><polygon id="uuid-a2c803e8-ca89-41dd-bec1-33be3a088370" points="27.308 36.026 0 36.026 0 0 18.53 0 27.308 8.533 27.308 36.026" fill="#90caf9"/><polygon id="uuid-80a025c9-64a2-4dd2-b38a-d5512cc0c359" points="25.845 9.481 17.555 9.481 17.555 1.422 25.845 9.481" fill="#e1f5fe"/><g id="uuid-1c897578-99b9-40bf-bbd5-fcbec59769f7"><polygon id="uuid-1b2b2049-1427-4040-be58-76ee65eaed58" points="28.783 31.836 30.714 29.959 38.989 38.004 37.058 39.881 28.783 31.836" fill="#616161"/><ellipse id="uuid-f37693ca-2a58-47b3-a8db-d856be8e0df2" cx="22.432" cy="23.702" rx="10.728" ry="10.429" fill="#616161"/><ellipse id="uuid-3d418bd8-94de-4abd-a540-eb6608254cb1" cx="22.432" cy="23.702" rx="8.778" ry="8.533" fill="#90caf9"/></g><polygon id="uuid-384d083d-b3b1-4a54-a707-f3d571ea6989" points="31.069 34.016 33 32.139 39 37.971 37.069 39.848 31.069 34.016" fill="#37474f"/><g id="uuid-5f50d0ed-07f4-487c-8e36-4263159d4552"><path id="uuid-ae5bda9e-4484-449f-9c64-e62b3b4d4109" d="M24.382,25.598h-9.46c.39,1.517,1.268,2.844,2.438,3.792h7.022v-3.792Z" fill="#1976d2"/><path id="uuid-e9064dc5-ad4a-408f-b433-459a63c90e51" d="M14.922,21.806h9.46v-3.792h-7.12c-1.17.948-1.951,2.275-2.341,3.792Z" fill="#1976d2"/><path id="uuid-804f8c10-15bb-4cae-84c9-171a78cc325c" d="M14.727,15.169H5.852v1.896h7.12c.488-.664,1.073-1.327,1.756-1.896Z" fill="#1976d2"/><path id="uuid-f6f3175f-cead-438a-8de6-22fc779753b5" d="M11.801,18.961h-5.949v1.896h5.267c.195-.664.39-1.327.683-1.896Z" fill="#1976d2"/><path id="uuid-015605ff-9e12-4945-9d28-e7a28355d82b" d="M10.728,23.702c0-.284,0-.664.098-.948h-4.974v1.896h4.974c-.098-.284-.098-.664-.098-.948Z" fill="#1976d2"/><path id="uuid-0d4a5ca8-8be3-4b6b-9bb9-aa2f90f0f74f" d="M11.118,26.546h-5.267v1.896h5.949c-.293-.569-.488-1.232-.683-1.896Z" fill="#1976d2"/></g></g></g></g></svg>