<?xml version="1.0" encoding="UTF-8"?><svg id="uuid-5061a08f-f236-45fc-9a7a-c6919017c729" xmlns="http://www.w3.org/2000/svg" viewBox="0 0 80 88"><path d="M8,0C3.588,0,0,3.588,0,8v64c0,4.412,3.588,8,8,8h25.039c-1.688-2.416-2.999-5.108-3.859-8H8V8h28v20h20v8c2.78,0,5.464.424,8,1.18v-13.18L40,0H8ZM56,44c-11.2,0-20,8.8-20,20s8.8,20,20,20c4,0,8.003-1.203,11.203-3.203l7.195,7.203,5.602-5.602-7.203-7.195c2-3.2,3.203-7.203,3.203-11.203,0-11.2-8.8-20-20-20ZM56,52c6.8,0,12,5.2,12,12s-5.2,12-12,12-12-5.2-12-12,5.2-12,12-12Z"/></svg>