<?xml version="1.0" encoding="UTF-8"?><svg id="uuid-19087d0b-69b5-4d9c-8336-d62835b1d28c" xmlns="http://www.w3.org/2000/svg" xmlns:xlink="http://www.w3.org/1999/xlink" viewBox="0 0 256 256"><defs><clipPath id="uuid-a4f8e476-b5bf-4e5a-9d2f-5d30e29bcfd0"><rect width="256" height="256" fill="none"/></clipPath><clipPath id="uuid-9cec92f7-5542-4616-9d7a-59a39a533435"><rect width="256" height="256" fill="none"/></clipPath></defs><g clip-path="url(#uuid-a4f8e476-b5bf-4e5a-9d2f-5d30e29bcfd0)"><g clip-path="url(#uuid-9cec92f7-5542-4616-9d7a-59a39a533435)"><path d="M204.8,256H51.2c-28.28,0-51.2-22.92-51.2-51.2V51.2C0,22.92,22.92,0,51.2,0h153.6c28.28,0,51.2,22.92,51.2,51.2v153.6c0,28.28-22.92,51.2-51.2,51.2" fill="#fff"/><path d="M41.15,95l32.68-32.68c1.56-1.56,4.1-1.56,5.66,0l95.02,95.02c1.56,1.56,1.56,4.09,0,5.66l-32.68,32.68c-1.56,1.56-4.09,1.56-5.66,0L41.15,100.66c-1.56-1.56-1.56-4.1,0-5.66" fill="#5468ff"/><path d="M136.35,195.67l-32.68-32.68c-1.56-1.56-1.56-4.1,0-5.66l72.84-72.84c1.56-1.56,4.1-1.56,5.66,0l32.68,32.68c1.56,1.56,1.56,4.1,0,5.66l-72.84,72.84c-1.56,1.56-4.1,1.56-5.66,0" fill="#9cabfd"/><path d="M103.5,157.33l32.68-32.68c1.56-1.56,4.1-1.56,5.66,0l32.68,32.68c1.56,1.56,1.56,4.1,0,5.66l-32.68,32.68c-1.56,1.56-4.1,1.56-5.66,0l-32.68-32.68c-1.56-1.56-1.56-4.1,0-5.66" fill="#224fab"/></g></g></svg>