<?xml version="1.0" encoding="UTF-8"?><svg id="uuid-682c59e6-b869-4e1c-8df3-5c20bf5daf19" xmlns="http://www.w3.org/2000/svg" viewBox="0 0 84 88"><path d="M24,0C10.8,0,0,10.8,0,24s10.8,24,24,24,24-10.8,24-24S37.2,0,24,0ZM24,8c8.8,0,16,7.2,16,16s-7.2,16-16,16-16-7.2-16-16S15.2,8,24,8ZM64,8v8h-9.047c.66,2.56,1.047,5.232,1.047,8h20v8h-21.047c-.732,2.84-1.83,5.524-3.266,8h24.312l.008,40H20v-24.273c-2.796-.348-5.476-1.054-8-2.078v26.352c0,4.412,3.588,8,8,8h56c4.412,0,8-3.588,8-8V24c0-4.412-3.588-8-8-8h-4v-8h-8ZM27.602,12.797l-6.805,11.602,8.805,8.805,3.602-4-6-5.602,4.797-8.398-4.398-2.406Z"/></svg>