<?xml version="1.0" encoding="UTF-8"?><svg id="uuid-45bc4209-ba08-40bc-9701-6b4317d5e4e7" xmlns="http://www.w3.org/2000/svg" viewBox="0 0 32 31"><g id="uuid-bd10c523-942c-4444-ab74-0ff44310a815"><path id="uuid-31ae9d23-1f23-4a00-9cfb-dfff33fd1018" d="M16.015,0L7.409,5.743l1.349,2.152,1.034-.691v5.565L0,18.684l1.257,2.212,1.08-.653v10.757h12.425v-5.125h2.485v5.125h12.425v-10.907l1.09.648,1.238-2.222-9.782-5.808v-5.367l1.019.701,1.378-2.132L16.015,0ZM15.995,3.068l3.737,2.567v5.602l-3.732-2.217-3.723,2.249v-5.723l3.718-2.48ZM14.762,5.377v2.562h2.485v-2.562h-2.485ZM16.01,11.983l11.178,6.636v9.819h-7.455v-5.125h-7.455v5.125h-7.455v-9.696l11.188-6.758ZM7.307,18.189v2.562h2.485v-2.562h-2.485ZM12.277,18.189v2.562h2.485v-2.562h-2.485ZM17.247,18.189v2.562h2.485v-2.562h-2.485ZM22.218,18.189v2.562h2.485v-2.562h-2.485ZM7.307,23.313v2.562h2.485v-2.562h-2.485ZM22.218,23.313v2.562h2.485v-2.562h-2.485Z"/></g></svg>